<svg viewBox="0 0 500 500" xmlns="http://www.w3.org/2000/svg">
  <path fill="currentColor" d="M172.693 416.88L107 371.5L174.627 328.742C180.683 324.914 188.377 324.817 194.527 328.492L266.5 371.5L193.605 417.332C187.171 421.377 178.946 421.199 172.693 416.88Z" />
  <path fill="currentColor" d="M277.036 352.66L107 253L189.039 207.273C194.904 204.005 202.057 204.073 207.857 207.454L373.5 304L296.772 352.343C290.768 356.126 283.157 356.248 277.036 352.66Z" />
  <path fill="currentColor" d="M313.576 245.224L107 125L184.927 77.3535C190.832 73.7425 198.235 73.6292 204.248 77.0576L412 195.5L333.228 244.9C327.246 248.651 319.678 248.776 313.576 245.224Z" />
</svg>
